<svg id="logo" xmlns="http://www.w3.org/2000/svg" viewBox="0 0 282.3 95.85"><defs><style>.cls-1{fill:#faaf40;}.cls-2{fill:#fff;}</style></defs><path class="cls-1" d="M26.42,10.57l11.74.08h7.25a24.41,24.41,0,0,1,2.71.11,6.13,6.13,0,0,1,2,.74c1.39.72,2.09,2.77,2.09,6.17,0,3.09-.65,5-1.93,5.64a5.61,5.61,0,0,1-1.89.73,18.9,18.9,0,0,1-2.51.12H32.37c-.11.61-.36,2.57-.77,5.86a17.13,17.13,0,0,1,2.7-.15,18.78,18.78,0,0,1,13.2,5.52A17.84,17.84,0,0,1,53.37,48.9a19.09,19.09,0,0,1-5.56,13.74A18.43,18.43,0,0,1,34,68.4a23.91,23.91,0,0,1-13-3.63,12.22,12.22,0,0,1-1.93-1.47l-.62-.54c-2-1.7-2.93-3.24-2.93-4.63s.95-3.06,2.85-5q2.33-2.55,4.48-2.55c1.44,0,3.17.82,5.17,2.47q1.39,1.62,4.83,1.62A7.54,7.54,0,0,0,38,53.19a5.13,5.13,0,0,0,1.66-4.06A5,5,0,0,0,37.81,45a6.32,6.32,0,0,0-4.13-1.51A5,5,0,0,0,30,44.93a6.5,6.5,0,0,1-4.2,1.77,10.58,10.58,0,0,1-4.87-1.47,15.76,15.76,0,0,1-3.59-2.35A2.69,2.69,0,0,1,16.46,41q0-1,1.55-12.43t1.62-11.89a9.13,9.13,0,0,1,.54-1.62A9.89,9.89,0,0,1,21.29,13a5.72,5.72,0,0,1,2-1.66A6.42,6.42,0,0,1,26.42,10.57Z"/><path class="cls-1" d="M60.08,47.92a17.21,17.21,0,0,1,5.56-13.05,19,19,0,0,1,13.51-5.25q10.11,0,15.21,6.45t5.09,16.64q0,14.74-8.34,24.63T68.34,87.22h-.46a8.32,8.32,0,0,1-4.17-.77q-2.18-1.32-2.17-6.1,0-5.41,2.94-6.33A14.92,14.92,0,0,1,69,73.55a17.79,17.79,0,0,0,6.13-1.08,13.1,13.1,0,0,0,4.6-2.62,16.14,16.14,0,0,0,4.24-5.72l.39-1.08a14.06,14.06,0,0,1-5.79,1.32,18.45,18.45,0,0,1-13-5.06Q60.08,54.26,60.08,47.92Zm19.38-5.63q-6,0-5.95,5.17a5,5,0,0,0,1.35,3.32,5.52,5.52,0,0,0,4.36,1.54,6.62,6.62,0,0,0,4.6-1.43A4,4,0,0,0,85.4,48a10.05,10.05,0,0,0-.19-2.24,5.59,5.59,0,0,0-.81-1.74C83.62,42.88,82,42.29,79.46,42.29Z"/><path class="cls-2" d="M147,46q0,4.75-2.36,7a7.33,7.33,0,0,1-5.21,2.27h-18.3q0,2.18,2.55,3.63a10.13,10.13,0,0,0,5.1,1.47,21.17,21.17,0,0,0,7-.93l.85-.3a7.77,7.77,0,0,1,3.09-.85c1.65,0,3.06,1.15,4.25,3.47a8.63,8.63,0,0,1,1,3.55q0,6.87-16.45,6.87a24.68,24.68,0,0,1-10.15-2A17.25,17.25,0,0,1,111.47,65a22.2,22.2,0,0,1-4.86-14q0-9.73,6.29-15.56a22.25,22.25,0,0,1,15.71-5.83q10.74,0,15.75,7.57A15.71,15.71,0,0,1,147,46ZM130.7,48.27c2,0,2.93-.82,2.93-2.47a3.49,3.49,0,0,0-1.35-2.86,6.05,6.05,0,0,0-3.86-1.08,7.79,7.79,0,0,0-5,2A5.73,5.73,0,0,0,121,48.27Z"/><path class="cls-2" d="M174.86,44.18l-5-.31V54.52a5.28,5.28,0,0,0,.66,3,2.82,2.82,0,0,0,2.47.93,24.38,24.38,0,0,1,2.78.12,5.37,5.37,0,0,1,2,.73c1.18.67,1.78,2.39,1.78,5.17q0,4.88-2.17,6a6.88,6.88,0,0,1-2,.65,20.87,20.87,0,0,1-2.59.12q-8,0-12.2-3.63t-4.16-12.28V43.87a21,21,0,0,1-3.17.23,3.57,3.57,0,0,1-2.82-1.31c-.74-.88-1.12-2.37-1.12-4.48a19.2,19.2,0,0,1,.39-4.59,4.15,4.15,0,0,1,1.08-2,4.72,4.72,0,0,1,3.09-1l2.55.31V23a21.09,21.09,0,0,1,.11-2.62,4.9,4.9,0,0,1,.73-1.85q1-1.93,5.95-1.93,5.25,0,6.25,2.85a14.35,14.35,0,0,1,.39,3.94V31c2.26-.21,4-.31,5.13-.31a24,24,0,0,1,2.63.11,6.3,6.3,0,0,1,2,.74q2,1,2,5.94c0,3.24-.69,5.23-2.08,5.95a7.34,7.34,0,0,1-2,.65A21.61,21.61,0,0,1,174.86,44.18Z"/><path class="cls-2" d="M223.57,46q0,4.75-2.35,7A7.33,7.33,0,0,1,216,55.29h-18.3q0,2.18,2.55,3.63a10.1,10.1,0,0,0,5.09,1.47,21.19,21.19,0,0,0,7-.93l.85-.3a7.68,7.68,0,0,1,3.09-.85c1.64,0,3.06,1.15,4.24,3.47a8.52,8.52,0,0,1,1,3.55q0,6.87-16.45,6.87a24.68,24.68,0,0,1-10.15-2A17.25,17.25,0,0,1,188.06,65a22.2,22.2,0,0,1-4.86-14q0-9.73,6.29-15.56a22.25,22.25,0,0,1,15.71-5.83q10.73,0,15.75,7.57A15.7,15.7,0,0,1,223.57,46Zm-16.29,2.28c2,0,2.94-.82,2.94-2.47a3.49,3.49,0,0,0-1.35-2.86A6.07,6.07,0,0,0,205,41.86a7.75,7.75,0,0,0-5,2,5.73,5.73,0,0,0-2.47,4.36Z"/><path class="cls-2" d="M251.21,30.51a16.34,16.34,0,0,1,12.86,5.91,21.21,21.21,0,0,1,5.13,14.4V64.41a24.38,24.38,0,0,1-.11,2.66,6.42,6.42,0,0,1-.66,2q-1.08,2.08-6,2.08-5.49,0-6.33-2.85a12.54,12.54,0,0,1-.47-3.94V50.74a6.58,6.58,0,0,0-1.81-4.94A6.67,6.67,0,0,0,248.94,44,6.75,6.75,0,0,0,244,45.88a6.49,6.49,0,0,0-1.89,4.86V64.41a24.38,24.38,0,0,1-.11,2.66,5.62,5.62,0,0,1-.74,2q-1,2.08-5.94,2.08c-3.24,0-5.23-.69-5.95-2.08a6.93,6.93,0,0,1-.65-2.05,21.61,21.61,0,0,1-.12-2.66V37a20.87,20.87,0,0,1,.12-2.59,5.39,5.39,0,0,1,.73-2c.72-1.28,2.7-1.93,5.95-1.93s5.06.6,5.79,1.78a6.16,6.16,0,0,1,.77,3.16,7.73,7.73,0,0,1,1.39-1.54,13.28,13.28,0,0,1,2.08-1.62A10.15,10.15,0,0,1,251.21,30.51Z"/></svg>